<?xml version="1.0" encoding="utf-8"?>
<!-- Generator: Adobe Illustrator 25.2.3, SVG Export Plug-In . SVG Version: 6.00 Build 0)  -->
<svg version="1.1" id="Layer_1" xmlns="http://www.w3.org/2000/svg" xmlns:xlink="http://www.w3.org/1999/xlink" x="0px" y="0px"
	 viewBox="0 0 1441 532" style="enable-background:new 0 0 1441 532;" xml:space="preserve">
<style type="text/css">
	.st0{fill-rule:evenodd;clip-rule:evenodd;fill:url(#Path_1_);}
	.st1{fill:#FFFFFF;}
</style>
<g>
	<g id="Group-32">
		<g id="Group-8" transform="matrix(1 0 0 -1 0 532)">
			
				<linearGradient id="Path_1_" gradientUnits="userSpaceOnUse" x1="-238.5049" y1="-274.9435" x2="-238.1369" y2="-275.0107" gradientTransform="matrix(1440.035 0 0 532 343929.375 146573)">
				<stop  offset="0" style="stop-color:#FF4E22"/>
				<stop  offset="0.5" style="stop-color:#FF6A22"/>
				<stop  offset="1" style="stop-color:#FF4E22"/>
			</linearGradient>
			<path id="Path" class="st0" d="M720,0c254,0,496.8,28.6,720,80.6l0,451.4H0L0,80.6C223.2,28.6,466,0,720,0z"/>
		</g>
	</g>
</g>
<g>
	<path class="st1" d="M678.1,531.8c-1.2-0.1-2.3-0.3-3.5-0.3c-15.9-0.2-31.8-0.4-47.7-0.7c-9.6-0.2-19.1-0.7-28.7-1.4
		c0.9,0,1.7,0,2.6,0c10.7,0,21.5-0.1,32.2,0c1.8,0,2.9-0.6,3.9-2c11.7-15.8,23.4-31.6,35.1-47.4c1.5-2.1,2-2,3.7,0.1
		c4,5.4,7.9,10.7,11.9,16.1c0.5,0.7,1.1,1.4,1.9,2.3c1.1-1.4,2-2.4,2.8-3.5c9.1-12.3,18.1-24.7,27.2-37c2-2.7,2.3-2.7,4.3,0
		c9.5,12.8,18.9,25.6,28.3,38.4c0.5,0.7,1,1.3,1.7,2.3c2.8-3.7,5.4-7.2,8-10.7c1.9-2.5,3.8-5.1,5.7-7.6c1.8-2.3,2.2-2.3,4,0.1
		c11.5,15.3,23.1,30.6,34.5,46c1.7,2.3,3.5,3.1,6.2,3c9.4-0.1,18.8,0,28.2,0c0.8,0,1.6,0.1,2.4,0.3c-4.1,0.2-8.3,0.6-12.4,0.7
		c-21.4,0.4-42.8,0.8-64.2,1.2c-1.1,0-2.1,0.2-3.2,0.3C734.8,531.8,706.5,531.8,678.1,531.8z M670.5,529c0.9,0.1,1.3,0.3,1.8,0.3
		c15.3,0,30.6,0,45.9,0c1.9,0,2.4-0.8,2.4-2.5c-0.1-5.7-0.1-11.3,0-17c0-1.9-0.7-2.4-2.5-2.4c-9.9,0.1-19.8,0-29.7,0.1
		c-1.2,0-2.7,0.9-3.4,1.8c-4.1,5.3-7.9,10.7-11.9,16C672.2,526.5,671.5,527.6,670.5,529z M688,505c1.3,0.1,2,0.2,2.6,0.2
		c9.1,0,18.1-0.1,27.2,0.1c2.3,0,2.8-0.9,2.8-2.9c-0.1-13,0-25.9,0-38.9c0-0.6-0.1-1.2-0.3-2.3C709.3,475.9,698.8,490.2,688,505z
		 M755.8,505.2c-11-14.9-21.5-29.1-32.3-43.8c-0.3,1-0.4,1.3-0.4,1.6c0,9.2,0,18.5,0,27.7c0,0.9,0.5,2,1,2.7c2.5,3.5,5.1,7,7.8,10.4
		c0.5,0.7,1.4,1.4,2.2,1.4C741,505.2,748,505.2,755.8,505.2z M773.1,529.2c-0.2-0.7-0.3-0.9-0.4-1.1c-4.8-6.5-9.5-13-14.4-19.5
		c-0.6-0.7-2-1.2-3-1.2c-6.1-0.1-12.2-0.1-18.2,0c-0.6,0-1.2,0.2-2.2,0.3c5.4,7.1,10.4,13.9,15.6,20.6c0.3,0.5,1.1,0.8,1.7,0.9
		C759,529.2,766,529.2,773.1,529.2z M723.5,496.5c-0.2,0.8-0.4,1.1-0.4,1.3c0,9.7,0,19.5,0,29.2c0,1.8,0.9,2.3,2.5,2.3
		c6.2,0,12.5,0,18.7,0c1,0,2.1,0,3.8,0C739.6,518.1,731.8,507.5,723.5,496.5z M638.5,529.2c9.8,0,18.7,0,27.5,0
		c0.5,0,1.1-0.2,1.4-0.5c2.4-3.3,5.9-6,5.3-10.8c-0.2-1.8-0.7-2.7-2.6-2.7c-6.4,0.1-12.8,0-19.2,0.1c-0.8,0-2,0.2-2.5,0.8
		C645.1,520.2,642.1,524.4,638.5,529.2z M672.6,484.5c-0.3-0.1-0.5-0.2-0.8-0.3c-6.9,9.3-13.7,18.6-20.9,28.3
		c1.4,0.1,2.1,0.2,2.9,0.2c5.3,0,10.6-0.1,16,0c2.2,0,2.9-0.7,2.9-2.9c-0.1-7,0-14,0-21C672.6,487.5,672.6,486,672.6,484.5z
		 M771.3,483.8c-0.2,0.1-0.4,0.2-0.6,0.3c0,5.6,0,11.1,0,16.7c0,0.7,0.3,1.5,0.8,2c2.2,3,4.5,6,6.8,8.9c0.5,0.6,1.2,1.4,1.9,1.5
		c4.1,0.1,8.2,0.1,13.2,0.1C785.8,503,778.5,493.4,771.3,483.8z M768.2,518.1c0-11.8,0-22.9,0-34.7c-4.3,5.8-8.2,11-12.1,16.4
		c-0.3,0.5-0.2,1.7,0.2,2.2C760.2,507.1,764,512.3,768.2,518.1z M771.2,506.4c-0.2,0.1-0.4,0.2-0.5,0.2c0,3.4,0.2,6.8-0.1,10.2
		c-0.2,3.2,0.6,5.9,2.7,8.2c1.2,1.3,2.1,3.6,3.4,3.8c3.7,0.5,7.5,0.2,11.7,0.2C782.5,521.2,776.8,513.8,771.2,506.4z M782.1,515.8
		c0.1,0.6,0.1,0.9,0.2,1.1c2.9,3.8,5.7,7.6,8.6,11.3c0.3,0.4,0.9,0.9,1.4,0.9c4.2,0.1,8.3,0,13.1,0c-3.4-4.5-6.4-8.4-9.4-12.4
		c-0.3-0.4-0.9-0.9-1.4-0.9C790.5,515.8,786.3,515.8,782.1,515.8z M681.2,510.1c1.1-1.4,1.9-2.6,2.7-3.7c4.1-5.6,4.1-5.6-0.1-11.3
		c-2.7-3.7-5.5-7.4-8.2-11.1c-0.5,4.1-0.1,8.1-0.6,12C674.2,502,677.8,505.7,681.2,510.1z M675.5,507c0,3.6,0,7,0,10.8
		C680.2,512.2,680.2,511.2,675.5,507z"/>
	<path class="st1" d="M101.6,374.8c3.9,0.8,7.6,1.9,10.2,5.2c3.6,4.6,4.5,9.7,2.1,15c-2.6,5.6-7.2,8.1-13.2,8.2c-5,0.1-10,0-15,0.1
		c-6.6,0.2-11.4,5.1-11.5,11.4c0,6.4,4.8,11.4,11.6,11.6c3.5,0.1,7-0.1,10.5,0.1c1.1,0,2.1,0.7,3.2,1.1c-1,0.4-2,1.2-3.1,1.2
		c-3.3,0.2-6.7,0.1-10,0.1c-8.3-0.1-14.5-5.9-14.7-13.9c-0.2-7.7,6-13.9,14.2-14.2c4.7-0.2,9.5,0,14.2-0.1c7.5,0,12.5-4.6,12.5-11.6
		c0-7.1-5-11.7-12.7-11.7c-31.8,0-63.7,0-95.5,0c-1.3,0-2.6-0.4-3.9-0.6c0-0.3,0-0.7,0-1c1.3-0.2,2.6-0.6,3.9-0.6c31,0,62,0,93,0
		c1.2,0,2.5-0.2,3.7-0.4C101.2,374.8,101.5,374.8,101.6,374.8z"/>
	<path class="st1" d="M205.6,466.6c-2.4,0.9-4.3,1.8-6.3,2.3c-0.7,0.2-1.6-0.3-2.4-0.6c0.6-0.6,1-1.3,1.7-1.7c1.2-0.7,2.7-1,3.9-1.6
		c2.9-1.5,3.5-3.2,2.8-6.6c-2,0.8-4,1.6-6,2.2c-0.7,0.2-1.6-0.4-2.4-0.6c0.6-0.6,1-1.4,1.7-1.8c1.4-0.7,3-1.1,4.3-1.8
		c1.8-1.1,3-2.6,2.5-5.1c-1.5,0.6-2.9,1.3-4.4,1.6c-0.8,0.2-1.8-0.3-2.6-0.5c0.6-0.6,1.1-1.6,1.9-1.8c2.5-0.9,4.9-1.7,5.5-4.8
		c0.1-0.3,0.7-0.9,1-0.8c0.5,0.1,1.2,0.6,1.2,1c0.5,3.1,2.9,3.7,5.3,4.7c0.7,0.3,1.2,1.2,1.8,1.9c-0.9,0.2-1.8,0.6-2.7,0.4
		c-1.3-0.2-2.5-0.8-3.9-1.3c-0.7,2-0.1,3.5,1.4,4.4s3.2,1.4,4.7,2.3c0.8,0.4,1.3,1.2,2,1.7c-0.9,0.2-1.9,0.8-2.7,0.6
		c-1.8-0.5-3.5-1.3-5.3-2.1c-1.1,2.9-0.3,4.9,2.7,6.6c1.2,0.7,2.7,0.9,3.9,1.6c0.6,0.3,0.9,0.9,1.4,1.4c-0.7,0.3-1.4,0.9-2,0.8
		c-2.1-0.5-4-1.3-6.4-2.2c0,3.3-0.1,6.5,0.1,9.7c0,0.4,1,1.2,1.6,1.2c6.8,0.1,13.7,0.1,20.5,0c0.6,0,1.7-1.1,1.7-1.8
		c0.2-3.1,0.1-6.1,0.1-9.5c-1.6,0.6-2.9,1.3-4.3,1.6c-0.9,0.2-1.9-0.2-2.9-0.4c0.7-0.6,1.3-1.5,2.1-1.8c4.6-1.6,5.8-3.4,4.8-7.7
		c-1.7,0.6-3.4,1.3-5.1,1.7c-0.5,0.1-1.2-0.5-1.8-0.8c0.4-0.5,0.7-1.2,1.3-1.5c0.8-0.4,1.7-0.5,2.6-0.9c3.1-1.4,3.9-3,3.1-6.7
		c-2,0.8-4,1.6-6,2.2c-0.7,0.2-1.5-0.4-2.3-0.6c0.6-0.6,1-1.4,1.7-1.7c1.1-0.6,2.4-0.8,3.5-1.3c3-1.5,3.8-3.2,3.3-6.8
		c-2,0.7-4,1.6-6,2.1c-0.7,0.2-1.6-0.4-2.4-0.6c0.6-0.6,1.1-1.3,1.8-1.6c1.4-0.7,3-1.1,4.3-1.9c1.7-1,2.8-2.6,2.3-5
		c-1.5,0.5-2.9,1.2-4.4,1.5c-0.8,0.2-1.7-0.4-2.5-0.6c0.6-0.6,1.1-1.4,1.8-1.6c2.5-0.9,4.9-1.7,5.5-4.8c0.1-0.4,0.8-0.8,1.2-0.9
		c0.3,0,1,0.5,1,0.9c0.5,3.1,3,3.9,5.4,4.8c0.7,0.3,1.2,1.2,1.8,1.8c-0.8,0.2-1.7,0.6-2.4,0.5c-1.4-0.3-2.8-1-4.4-1.5
		c-0.6,2.1,0,3.8,1.8,4.8c1.6,0.9,3.5,1.5,5.2,2.3c0.5,0.2,0.9,0.9,1.3,1.3c-0.6,0.3-1.3,1-1.8,0.8c-2.2-0.6-4.2-1.3-6.4-2
		c-1,2.8-0.3,4.9,2.5,6.4c1.4,0.7,3,1.1,4.4,1.7c0.5,0.3,0.8,1,1.2,1.6c-0.6,0.3-1.3,0.9-1.8,0.7c-2.1-0.6-4.2-1.4-6.3-2.2
		c-1,3.5-0.2,5.2,2.9,6.6c0.5,0.2,1.2,0.3,1.6,0.6c0.8,0.5,1.5,1.2,2.3,1.8c-1,0.2-2.1,0.7-3,0.6c-1.3-0.2-2.5-0.9-3.7-1.3
		c-1.3,3.9-0.1,6,4,7.4c1,0.4,1.8,1.3,2.7,1.9c-1.2,0.1-2.4,0.4-3.6,0.3c-1-0.1-2-0.7-3.5-1.3c0,3.6-0.1,6.9,0.1,10.3
		c0,0.4,1.8,1,2.7,1c9.1,0.1,18.2,0,27.2,0.1c5.7,0.1,9.9,2.8,12.4,7.8s2,10-1.2,14.7c-0.9,1.3-1.9,2.1-3.3,1.1
		c1.2-2.5,2.7-4.8,3.4-7.4c1.7-6.7-3.5-13.3-10.3-13.6c-1.5-0.1-3-0.1-4.5-0.1c-33.4,0-66.8,0-100.2,0c-7.2,0-12.9-4.3-14.4-10.8
		c-1.5-6.6,1.7-13.3,7.9-16.1c1.6-0.7,3.5-0.8,5.3-1.1c0.4,0,1.1,0.6,1.1,1s-0.5,1.1-0.9,1.2c-1.1,0.4-2.3,0.4-3.4,0.8
		c-5.5,1.7-8.7,7-7.9,12.6c0.8,5.4,5.5,9.7,11.1,9.7c14.4,0.1,28.8,0,43.2,0.1c1.8,0,2.6-0.6,2.5-2.4
		C205.4,472.5,205.6,469.7,205.6,466.6z"/>
	<path class="st1" d="M1237.8,466.7c0,3.3-0.1,6.4,0.1,9.5c0,0.6,1.5,1.4,2.3,1.5c4.1,0.2,8.2,0.1,12.2,0.1c11.7,0,23.3,0,35,0
		c3.3,0,6.2-1.1,8.6-3.4c3.3-3.3,4.1-7.3,2.8-11.5c-1.3-4.3-4.5-6.9-8.9-7.9c-0.3-0.1-0.7,0-1-0.1c-0.7-0.4-1.4-0.9-2.1-1.3
		c0.8-0.4,1.6-1.2,2.4-1.1c5,0.4,8.6,3.1,10.9,7.4c5,9.7-1.9,20.6-13,20.6c-30.2,0-60.3,0-90.5,0c-4.4,0-8.8,0-13.2,0
		c-4.7,0-8.3,2.1-10.4,6.1c-2.2,4.2-1.8,8.4,0.9,12.3c0.3,0.5,0.6,1,0.9,1.5c-2,0.9-2.4,0.7-3.6-1.2c-5.6-9.4,1-21.2,12.1-21.3
		c7.4-0.1,14.8-0.1,22.2,0.1c2.4,0,3.2-0.8,3.1-3.2c-0.2-2.7,0-5.4,0-8.3c-1.9,0.7-3.4,1.4-5,1.8c-0.7,0.2-1.5-0.4-2.3-0.7
		c0.5-0.5,1-1.1,1.6-1.6c0.2-0.2,0.6-0.2,1-0.3c4.2-1.4,5.2-2.9,4.5-7.6c-1.6,0.6-3.2,1.3-4.9,1.7c-0.7,0.1-1.5-0.5-2.2-0.8
		c0.5-0.5,1-1.2,1.7-1.5c0.8-0.4,1.7-0.6,2.6-1c2.9-1.4,3.6-3.1,2.8-6.7c-1.7,0.7-3.4,1.6-5.2,2.1c-0.9,0.3-2.1-0.2-3.1-0.3
		c0.8-0.7,1.4-1.5,2.3-2c1.1-0.7,2.5-0.9,3.6-1.6c2.5-1.5,3.1-3.2,2.4-6.3c-2,0.7-4,1.5-6.1,2.1c-0.7,0.2-1.5-0.5-2.3-0.8
		c0.6-0.5,1.1-1.2,1.7-1.5c1.4-0.7,3-1.1,4.3-1.9c1.8-1.1,3-2.6,2.4-5.2c-1.7,0.6-3.3,1.3-4.9,1.7c-0.6,0.1-1.4-0.4-2.1-0.7
		c0.5-0.5,0.9-1.4,1.5-1.6c2.7-0.9,5.2-1.9,5.9-5.1c0.1-0.3,0.8-0.8,1.1-0.7c0.4,0,1,0.5,1,0.9c0.6,3.1,3.1,3.9,5.5,4.8
		c0.7,0.3,1.1,1.1,1.7,1.7c-0.8,0.2-1.6,0.7-2.4,0.6c-1.4-0.3-2.7-0.9-4.1-1.4c-0.8,2-0.1,3.6,1.4,4.5c1.6,1,3.5,1.5,5.2,2.4
		c0.6,0.3,0.9,1,1.3,1.5c-0.6,0.2-1.4,0.8-1.9,0.7c-2.1-0.6-4.1-1.3-6.1-2c-0.9,2.5-0.4,4.5,1.7,5.9c1.3,0.8,2.9,1.2,4.3,2
		c0.8,0.4,1.3,1.2,2,1.8c-0.9,0.2-1.9,0.8-2.8,0.6c-1.8-0.4-3.4-1.3-5.1-1.9c-1.2,2.6-0.7,4.7,1.7,6c1,0.6,2.2,0.8,3.2,1.4
		c0.7,0.4,1.1,1.1,1.7,1.7c-0.8,0.2-1.7,0.8-2.4,0.6c-1.4-0.3-2.8-0.9-4.2-1.4c-1.2,3-0.6,5.1,2,6.5c0.6,0.3,1.3,0.5,1.8,0.8
		c1,0.6,2.7,1.7,2.6,1.9c-0.9,1.8-2.4,0.7-3.7,0.3c-1-0.2-1.8-0.7-3.3-1.3c0,3.6-0.1,7,0.1,10.3c0,0.4,1.1,1,1.7,1
		c6.7,0.1,13.5,0.1,20.2,0c0.6,0,1.7-0.9,1.8-1.5c0.2-3.1,0.1-6.1,0.1-9.5c-2.2,0.8-4.1,1.6-6.1,2.2c-0.7,0.2-1.6-0.4-2.4-0.6
		c0.6-0.6,1-1.3,1.7-1.7c1.2-0.6,2.7-0.9,3.9-1.6c2.7-1.5,3.3-3.2,2.4-6.3c-1.9,0.7-3.8,1.5-5.8,2c-0.6,0.2-1.5-0.5-2.3-0.7
		c0.6-0.6,1-1.3,1.7-1.7c1.5-0.8,3.3-1.3,4.7-2.2c1.6-1,2.3-2.5,1.6-4.6c-1.4,0.5-2.7,1.2-4.1,1.4c-0.8,0.1-1.7-0.4-2.5-0.6
		c0.6-0.6,1-1.4,1.7-1.7c2.5-0.9,4.9-1.7,5.4-4.8c0.1-0.4,0.8-0.9,1-0.8c0.5,0.1,1.1,0.6,1.2,1c0.6,3,3,3.7,5.3,4.7
		c0.8,0.3,1.3,1.1,2,1.7c-0.9,0.2-1.9,0.7-2.8,0.6c-1.4-0.2-2.6-1-4.1-1.6c-0.6,2.1,0.3,3.7,1.8,4.7c1.4,0.9,3,1.3,4.5,2.2
		c0.8,0.5,1.4,1.3,2.1,1.9c-1,0.2-2,0.7-2.9,0.4c-1.8-0.5-3.5-1.4-5.3-2.1c-1,3-0.3,5,2.5,6.5c1.4,0.7,3,1.1,4.4,1.8
		c0.6,0.3,0.9,1,1.3,1.5c-0.6,0.3-1.3,0.9-1.8,0.7C1242.5,468.4,1240.4,467.6,1237.8,466.7z"/>
	<path class="st1" d="M130.2,407.4c-2.1,0.9-4,1.8-6,2.3c-0.7,0.2-1.7-0.4-2.6-0.7c0.6-0.5,1.2-1.2,1.9-1.6c1.7-0.9,3.6-1.4,5-2.6
		c1.1-0.9,1.5-2.6,2.2-4c-0.2-0.1-0.5-0.3-0.7-0.4c-1.7,0.6-3.4,1.3-5.1,1.7c-0.5,0.1-1.2-0.5-1.9-0.7c0.4-0.5,0.8-1.3,1.3-1.5
		c2.8-0.9,5.3-1.9,6.1-5.2c0.3-1.2,1.6-1.1,1.9,0.1c0.9,3.1,3.2,4.3,6,5c0.6,0.2,1,0.9,1.4,1.4c-0.7,0.3-1.4,0.9-2,0.8
		c-1.7-0.4-3.3-1.1-5.1-1.8c-0.3,2.9,1,4.6,3.4,5.8c1.3,0.6,2.7,0.9,3.9,1.5c0.5,0.2,0.9,0.8,1.3,1.3c-0.6,0.3-1.3,1-1.8,0.9
		c-2.2-0.6-4.4-1.5-6.6-2.2c-0.9,2.3-0.2,4.8,2,6.2c1.5,0.9,3.4,1.4,5,2.2c0.6,0.3,0.9,1,1.3,1.5c-0.6,0.2-1.4,0.8-1.9,0.7
		c-2.2-0.7-4.3-1.6-6.8-2.5c0,3.1,0,6.3,0.1,9.6c0,0.4,0.9,1,1.4,1c7,0.1,14,0.1,21,0c0.6,0,1.6-1.2,1.7-1.9c0.2-2.9,0.1-5.8,0.1-9
		c-1.8,0.7-3.4,1.4-5,1.8c-0.7,0.2-1.5-0.5-2.3-0.7c0.6-0.5,1.1-1.1,1.7-1.4c1.2-0.7,2.7-1,3.8-1.8c2.3-1.6,1.9-3.9,1.6-6.3
		c-1.9,0.7-3.5,1.3-5.3,1.8c-0.5,0.1-1.2-0.5-1.8-0.8c0.4-0.5,0.7-1.1,1.2-1.4s1.1-0.3,1.6-0.5c4-1.5,4.9-3,4.3-7.4
		c-2,0.8-3.9,1.7-6,2.3c-0.7,0.2-1.7-0.4-2.5-0.6c0.6-0.5,1.1-1.2,1.8-1.6c1.3-0.7,2.8-1,4.1-1.8c2.5-1.4,3.2-3.6,2.4-6.6
		c-1.8,0.7-3.6,1.6-5.5,2.1c-0.8,0.2-1.9-0.3-2.8-0.5c0.7-0.6,1.3-1.2,2.1-1.7c1.8-1.1,3.9-1.9,5.5-3.2c0.8-0.7,0.9-2.2,1.5-3.9
		c-2.4,0.8-4,1.5-5.7,1.9c-0.6,0.1-1.3-0.3-1.9-0.6c0.4-0.5,0.7-1.4,1.2-1.5c2.9-0.9,5.6-1.8,6.2-5.3c0.1-0.3,0.8-0.7,1.2-0.6
		c0.4,0.1,1,0.5,1,0.9c0.5,3.2,3,3.9,5.4,4.8c0.7,0.3,1.2,1.1,1.8,1.6c-0.8,0.2-1.6,0.7-2.4,0.6c-1.4-0.3-2.8-0.9-4.4-1.4
		c-0.7,2.1,0,3.8,1.8,4.8c1.4,0.8,3,1.3,4.5,2c0.7,0.4,1.2,1.1,1.8,1.6c-0.9,0.2-1.8,0.8-2.5,0.6c-1.9-0.5-3.7-1.3-5.6-2
		c-0.9,3.8,0.1,5.8,3.9,7.4c1,0.4,2.1,0.6,3.1,1c0.5,0.2,0.8,0.9,1.2,1.3c-0.6,0.3-1.3,0.9-1.8,0.8c-2.1-0.6-4.2-1.4-6.3-2.1
		c-1.1,3.2-0.4,5.1,2.5,6.5c0.6,0.3,1.3,0.4,1.8,0.7c0.8,0.6,1.5,1.3,2.3,2c-1.1,0.1-2.2,0.3-3.2,0.2c-1.1-0.2-2.2-0.8-3.2-1.2
		c-1.4,2.9-0.8,5.2,1.7,6.6c1,0.6,2.2,0.8,3.2,1.3c0.6,0.3,1,1,1.6,1.5c-0.7,0.2-1.5,0.8-2.2,0.6c-1.5-0.3-3-0.9-4.9-1.6
		c0,3.2-0.1,6.3,0.1,9.3c0,0.5,1.2,1.2,2,1.3c2.1,0.3,4.2,0.1,6.2,0.4c6.4,1,11,6.5,11.4,13c0.4,6.4-3.9,12.5-10,14.2
		c-0.7,0.2-1.5,0.5-2.2,0.3c-0.9-0.2-1.8-0.7-2.7-1.1c0.8-0.5,1.5-1.2,2.3-1.4c4.7-0.8,8-3.2,9.6-7.7c2.7-7.5-3-15.2-11.3-15.2
		c-14.6-0.1-29.2,0-43.7,0c-1.1,0-2.2,0.1-3.2-0.1c-0.6-0.1-1.2-0.7-1.7-1.1c0.6-0.4,1.1-1.2,1.7-1.3c2.9-0.1,5.8-0.1,8.7-0.1
		c3.7,0,3.7,0,3.7-3.8c0-2.1,0-4.2-0.1-6.2c0-0.1-0.1-0.3-0.3-0.6c-1.8,0.7-3.6,1.6-5.5,2.1c-0.9,0.2-1.9-0.2-2.9-0.4
		c0.7-0.6,1.4-1.4,2.2-1.8c1.3-0.7,2.8-1.1,4.1-1.9C130.4,412.4,130.9,410.1,130.2,407.4z"/>
	<path class="st1" d="M1290.2,415.8c-2.2,0.6-3.8,1.2-5.5,1.6c-0.5,0.1-1.1-0.5-1.6-0.7c0.4-0.5,0.7-1.1,1.1-1.4
		c0.8-0.4,1.7-0.6,2.6-0.9c3.3-1.4,4.2-3.4,3-7.1c-1.6,0.5-3.1,1.2-4.7,1.5c-0.6,0.1-1.3-0.5-2-0.8c0.5-0.5,0.9-1.1,1.5-1.4
		c0.5-0.3,1.3-0.4,1.9-0.7c3.5-1.3,4.3-2.9,3.6-7c-1.9,0.7-3.8,1.5-5.8,2c-0.7,0.2-1.7-0.4-2.5-0.6c0.6-0.5,1.2-1.2,1.9-1.5
		c1.3-0.7,2.8-1,4.1-1.8c2.5-1.5,3-3.3,2.2-6.4c-1.9,0.7-3.7,1.5-5.6,2c-0.7,0.2-1.7-0.4-2.5-0.6c0.6-0.5,1.2-1.2,1.9-1.6
		c1.4-0.7,3-1.1,4.3-1.9c1.8-1,2.6-2.7,2.1-5c-1.7,0.5-3.3,1.2-5,1.5c-0.5,0.1-1.2-0.4-1.9-0.7c0.4-0.5,0.8-1.3,1.3-1.5
		c2.7-0.9,5.5-1.8,6-5.2c0.1-0.3,0.8-0.7,1.1-0.7c0.4,0,0.9,0.5,1,0.9c0.5,3.1,3,3.9,5.5,4.8c0.7,0.3,1.3,1,1.9,1.5
		c-0.8,0.2-1.7,0.8-2.5,0.6c-1.5-0.3-2.9-1-4.6-1.6c-0.5,2.6,0.7,4.2,2.6,5.3c1.4,0.8,3.1,1.2,4.6,1.9c0.6,0.3,0.9,1,1.3,1.5
		c-0.6,0.3-1.4,0.8-1.9,0.7c-2.1-0.6-4.2-1.5-6.3-2.2c-1.1,2.5-0.4,5,2.1,6.4c1.4,0.8,3.1,1.2,4.6,2c0.6,0.3,1,1,1.5,1.6
		c-0.7,0.2-1.5,0.8-2.1,0.6c-2.1-0.6-4.2-1.5-6.3-2.2c-1,3.6-0.1,5.4,3.3,6.9c0.8,0.4,1.8,0.5,2.6,0.9c0.5,0.3,0.7,0.9,1.1,1.4
		c-0.6,0.3-1.2,0.8-1.6,0.7c-1.8-0.4-3.5-1.1-5.2-1.7c-1.2,3.3-0.3,5.6,2.7,7.1c0.4,0.2,1,0.3,1.4,0.6c0.9,0.6,1.8,1.3,2.7,1.9
		c-1.3,0.1-2.6,0.3-3.9,0.1c-1-0.1-2-0.8-3.4-1.4c0,3.4-0.1,6.5,0.1,9.5c0,0.5,1.2,1.3,1.9,1.4c6.7,0.1,13.5,0.1,20.2,0.1
		c1.3,0,2.1-0.4,2.1-1.9c0-2.8,0-5.6,0-8.8c-2,0.8-3.7,1.7-5.5,2.2c-1,0.3-2.1-0.2-3.2-0.3c0.8-0.6,1.5-1.6,2.3-1.9
		c5.1-1.6,6.7-3.6,6.1-8.2c-2,0.8-3.9,1.7-6,2.2c-0.7,0.2-1.7-0.4-2.5-0.7c0.6-0.5,1.2-1.2,2-1.6c1.8-1,3.8-1.7,5.4-3
		c0.9-0.8,1.1-2.4,1.9-4.3c-2.5,0.9-4.1,1.5-5.7,2c-0.6,0.1-1.3-0.4-1.9-0.6c0.4-0.5,0.7-1.4,1.2-1.5c2.8-0.9,5.5-1.8,6.3-5.3
		c0.3-1.2,1.7-0.9,2,0.2c0.8,3.2,3.1,4.3,5.9,5.1c0.6,0.2,0.9,1.1,1.4,1.7c-0.7,0.2-1.4,0.7-1.9,0.6c-1.5-0.3-3-1-4.6-1.5
		c-0.8,2.2,0.1,3.7,1.7,4.8c1.5,0.9,3.2,1.4,4.7,2.2c0.6,0.3,1,1,1.6,1.5c-0.7,0.2-1.5,0.8-2.2,0.6c-2-0.6-3.9-1.4-5.8-2.1
		c-1.1,2.9-0.4,5.1,2.3,6.6c1.5,0.8,3.1,1.2,4.6,1.9c0.5,0.2,0.7,0.9,1.1,1.4c-0.6,0.3-1.1,0.8-1.7,0.7c-1.1-0.2-2.3-0.6-3.3-1
		s-1.9-0.9-3.4-1.6c0,3.4-0.1,6.5,0.1,9.6c0,0.4,1.1,1,1.7,1.1c1.1,0.2,2.3,0,3.5,0.2c0.5,0.1,1,0.7,1.5,1c-0.5,0.4-1,1.1-1.5,1.3
		c-0.8,0.2-1.7,0.1-2.5,0.1c-13.2,0-26.3,0-39.5,0c-6.9,0-11.9,5.1-11.8,11.8c0.1,5.4,4,10.1,9.4,11c0.6,0.1,1.2,0,1.7,0.2
		c0.5,0.3,0.9,0.8,1.3,1.3c-0.5,0.4-1.1,1.1-1.4,1c-2.2-0.5-4.7-0.7-6.6-1.8c-5.5-3.2-8-9.4-6.4-15.5c1.5-6,6.7-10.2,13.1-10.6
		c2-0.1,4,0.1,6-0.1c0.7-0.1,1.9-1,2-1.6C1290.2,421.8,1290.2,418.9,1290.2,415.8z"/>
	<path class="st1" d="M1392,375.2c15,0,30,0,45,0c0.7,0,1.5-0.1,2.2,0.1c0.5,0.1,1,0.6,1.4,1c-0.4,0.4-0.8,0.9-1.4,1.1
		c-0.8,0.2-1.7,0.1-2.5,0.1c-29.6,0-59.1,0-88.7,0c-4.5,0-8.4,1.4-10.9,5.3c-2.4,3.7-2.6,7.7-0.6,11.6c2.1,4,5.5,6.2,10,6.4
		c4.7,0.1,9.3,0,14,0.1c7.8,0.2,13.3,5,14.4,12.3c1.1,7.7-4.8,15.3-12.6,15.7c-5.4,0.3-10.8,0.1-16.2,0c-0.7,0-1.3-0.7-2-1
		c0.7-0.5,1.3-1.3,2-1.3c5.1-0.1,10.2,0,15.2-0.2c8.3-0.3,13.5-8.2,10.5-15.7c-1.8-4.4-5.2-7-9.9-7.2c-4.7-0.2-9.5-0.1-14.2-0.1
		c-7.6-0.1-13.4-4.8-14.6-11.8c-1.5-8.5,5-16.2,13.7-16.2c13.3,0,26.7,0,40,0C1388.5,375.2,1390.2,375.2,1392,375.2z"/>
	<path class="st1" d="M584.6,519.7c0,2.7,0.1,5-0.1,7.2c0,0.7-0.7,1.4-1.1,2.1c-0.4-0.8-1.2-1.5-1.2-2.3c-0.1-2.1,0.2-4.2,0.3-6.5
		c-2.7,1-4.9,2-7.3,2.7c-0.7,0.2-1.7-0.4-2.5-0.6c0.6-0.5,1.2-1.2,1.9-1.5c1-0.5,2.2-0.7,3.3-1.2c4.1-1.9,5.1-4,4.4-8.7
		c-2.2,0.8-4.4,1.8-6.7,2.4c-0.8,0.2-1.7-0.3-2.6-0.5c0.7-0.6,1.3-1.3,2-1.7c1.5-0.7,3.1-1.2,4.6-1.9c2.7-1.4,3.8-3.6,3.2-6.8
		c-1.9,0.7-3.7,1.6-5.5,2.1c-0.7,0.2-1.7-0.4-2.5-0.7c0.6-0.5,1.2-1.3,1.9-1.5c3-1,5.9-1.9,6.5-5.7c0.1-0.4,0.8-1,1.2-1
		s1.1,0.6,1.1,1.1c0.4,3.5,3.1,4.5,5.8,5.4c0.3,0.1,0.7,0.1,1,0.3c0.6,0.5,1.1,1,1.6,1.6c-0.7,0.2-1.5,0.8-2.1,0.7
		c-2-0.5-3.9-1.3-5.8-2.1c-0.7,2.7-0.2,4.7,2.1,6.1c1.8,1.1,4,1.7,5.9,2.6c0.6,0.3,1.1,1,1.6,1.5c-0.8,0.2-1.6,0.9-2.2,0.7
		c-2.7-0.9-5.4-2-8-3.1c-1,4.6,0.2,7.4,4.6,9.4c0.8,0.3,1.6,0.5,2.3,0.9c1.1,0.5,3.1-0.1,2.6,2c-0.1,0.3-2.4,0.5-3.5,0.1
		C589.5,522,587.5,520.9,584.6,519.7z"/>
	<path class="st1" d="M861.3,502.4c-0.3,2.8,0.5,5.2,3,6.6c1.6,0.9,3.4,1.4,5,2.2c0.7,0.3,1.3,1,1.9,1.6c-0.8,0.2-1.8,0.8-2.5,0.6
		c-2.2-0.6-4.4-1.6-6.5-2.4c-1.3,2.8-0.7,5.7,2.1,7.4c1.7,1.1,3.8,1.6,5.7,2.5c0.6,0.3,1.1,1,1.6,1.5c-0.7,0.2-1.5,0.8-2.1,0.7
		c-2.5-0.8-5-1.7-7.3-2.6c0,2.1,0.1,4.2,0,6.4c0,0.7-0.7,1.3-1,2c-0.5-0.6-1.3-1.2-1.3-1.9c-0.2-2.4-0.1-4.8-0.1-7.4
		c-2.2,1.1-4.2,2.1-6.2,3c-0.6,0.3-1.3,0.6-1.9,0.5c-0.9-0.1-1.7-0.4-2.6-0.6c0.6-0.5,1.2-1.2,1.9-1.6c1.6-0.7,3.3-1.1,4.8-2
		c3.2-1.9,4.1-4.7,3-8.4c-2.4,1-4.8,2.1-7.3,2.9c-0.8,0.2-1.8-0.3-2.6-0.4c0.6-0.6,1.2-1.3,2-1.7c1.4-0.7,3-1.1,4.4-1.8
		c2.9-1.4,3.9-3.8,3.8-7.1c-2,0.8-3.9,1.7-5.8,2.2c-0.8,0.2-1.7-0.3-2.6-0.5c0.7-0.6,1.2-1.5,2-1.7c3.1-1,5.8-2.1,6.5-5.7
		c0.1-0.4,0.8-0.8,1.3-0.9c0.3,0,0.9,0.6,0.9,0.9c0.5,3.7,3.3,4.7,6.2,5.6c0.2,0.1,0.6,0,0.7,0.2c0.5,0.5,1,1.1,1.5,1.6
		c-0.7,0.2-1.5,0.7-2.2,0.6C865.3,504,863.5,503.2,861.3,502.4z"/>
</g>
</svg>
