<?xml version="1.0" encoding="utf-8"?>
<!-- Generator: Adobe Illustrator 25.2.3, SVG Export Plug-In . SVG Version: 6.00 Build 0)  -->
<svg version="1.1" id="Layer_1" xmlns="http://www.w3.org/2000/svg" xmlns:xlink="http://www.w3.org/1999/xlink" x="0px" y="0px"
	 viewBox="0 0 1639.6 540.6" style="enable-background:new 0 0 1639.6 540.6;" xml:space="preserve">
<style type="text/css">
	.st0{fill-rule:evenodd;clip-rule:evenodd;fill:url(#Path_1_);}
	.st1{fill:#FFFFFF;}
</style>
<g id="Salesforce-Developers">
	<g id="Group-32">
		<g id="Group-8" transform="matrix(1 0 0 -1 0 532)">
			
				<linearGradient id="Path_1_" gradientUnits="userSpaceOnUse" x1="-477.283" y1="-481.4821" x2="-476.8725" y2="-481.678" gradientTransform="matrix(1440.035 0 0 532 687858.75 256507)">
				<stop  offset="0" style="stop-color:#FF4E22"/>
				<stop  offset="1" style="stop-color:#FF4E22"/>
			</linearGradient>
			<path id="Path" class="st0" d="M820-3.2c289.1,0,565.5,45.3,819.6,97.7V532H0.4V94.4C254.5,42.1,530.8-3.2,820-3.2z"/>
		</g>
		<g>
			<path class="st1" d="M771.1,536.1c-1.4-0.1-2.6-0.4-4-0.4c-18.1-0.3-36.2-0.5-54.3-0.9c-10.9-0.3-21.7-0.9-32.7-1.9
				c1,0,1.9,0,3,0c12.2,0,24.5-0.1,36.7,0c2,0,3.3-0.8,4.4-2.7c13.3-21.4,26.6-42.7,40-64.1c1.7-2.8,2.3-2.7,4.2,0.1
				c4.6,7.3,9,14.5,13.5,21.8c0.6,0.9,1.3,1.9,2.2,3.1c1.3-1.9,2.3-3.2,3.2-4.7c10.4-16.6,20.6-33.4,31-50c2.3-3.7,2.6-3.7,4.9,0
				c10.8,17.3,21.5,34.6,32.2,51.9c0.6,0.9,1.1,1.8,1.9,3.1c3.2-5,6.1-9.7,9.1-14.5c2.2-3.4,4.3-6.9,6.5-10.3c2-3.1,2.5-3.1,4.6,0.1
				c13.1,20.7,26.3,41.4,39.3,62.2c1.9,3.1,4,4.2,7.1,4.1c10.7-0.1,21.4,0,32.1,0c0.9,0,1.8,0.1,2.7,0.4c-4.7,0.3-9.4,0.8-14.1,0.9
				c-24.4,0.5-48.7,1.1-73.1,1.6c-1.3,0-2.4,0.3-3.6,0.4C835.6,536.1,803.4,536.1,771.1,536.1z M762.4,532.3c1,0.1,1.5,0.4,2,0.4
				c17.4,0,34.8,0,52.2,0c2.2,0,2.7-1.1,2.7-3.4c-0.1-7.7-0.1-15.3,0-23c0-2.6-0.8-3.2-2.8-3.2c-11.3,0.1-22.5,0-33.8,0.1
				c-1.4,0-3.1,1.2-3.9,2.4c-4.7,7.2-9,14.5-13.5,21.6C764.4,528.9,763.5,530.4,762.4,532.3z M782.4,499.8c1.5,0.1,2.3,0.3,3,0.3
				c10.4,0,20.6-0.1,31,0.1c2.6,0,3.2-1.2,3.2-3.9c-0.1-17.6,0-35,0-52.6c0-0.8-0.1-1.6-0.3-3.1
				C806.7,460.4,794.7,479.8,782.4,499.8z M859.6,500.1c-12.5-20.2-24.5-39.4-36.8-59.2c-0.3,1.4-0.5,1.8-0.5,2.2
				c0,12.4,0,25,0,37.5c0,1.2,0.6,2.7,1.1,3.7c2.8,4.7,5.8,9.5,8.9,14.1c0.6,0.9,1.6,1.9,2.5,1.9
				C842.7,500.1,850.7,500.1,859.6,500.1z M879.3,532.5c-0.2-0.9-0.3-1.2-0.5-1.5c-5.5-8.8-10.8-17.6-16.4-26.4
				c-0.7-0.9-2.3-1.6-3.4-1.6c-6.9-0.1-13.9-0.1-20.7,0c-0.7,0-1.4,0.3-2.5,0.4c6.1,9.6,11.8,18.8,17.8,27.9
				c0.3,0.7,1.3,1.1,1.9,1.2C863.2,532.5,871.1,532.5,879.3,532.5z M822.7,488.3c-0.2,1.1-0.5,1.5-0.5,1.8c0,13.1,0,26.4,0,39.5
				c0,2.4,1,3.1,2.8,3.1c7.1,0,14.2,0,21.3,0c1.1,0,2.4,0,4.3,0C841.2,517.5,832.2,503.2,822.7,488.3z M726.1,532.5
				c11.2,0,21.3,0,31.3,0c0.6,0,1.3-0.3,1.6-0.7c2.7-4.5,6.7-8.1,6-14.6c-0.2-2.4-0.8-3.7-3-3.7c-7.3,0.1-14.6,0-21.9,0.1
				c-0.9,0-2.3,0.3-2.8,1.1C733.6,520.4,730.2,526,726.1,532.5z M764.9,472.1c-0.3-0.1-0.6-0.3-0.9-0.4
				c-7.9,12.6-15.6,25.2-23.8,38.3c1.6,0.1,2.4,0.3,3.3,0.3c6,0,12.1-0.1,18.2,0c2.5,0,3.3-0.9,3.3-3.9c-0.1-9.5,0-18.9,0-28.4
				C764.9,476.1,764.9,474.1,764.9,472.1z M877.2,471.1c-0.2,0.1-0.5,0.3-0.7,0.4c0,7.6,0,15,0,22.6c0,0.9,0.3,2,0.9,2.7
				c2.5,4.1,5.1,8.1,7.7,12c0.6,0.8,1.4,1.9,2.2,2c4.7,0.1,9.3,0.1,15,0.1C893.6,497.1,885.4,484.1,877.2,471.1z M873.7,517.5
				c0-16,0-31,0-46.9c-4.9,7.8-9.3,14.9-13.8,22.2c-0.3,0.7-0.2,2.3,0.2,3C864.6,502.6,868.9,509.7,873.7,517.5z M877.1,501.7
				c-0.2,0.1-0.5,0.3-0.6,0.3c0,4.6,0.2,9.2-0.1,13.8c-0.2,4.3,0.7,8,3.1,11.1c1.4,1.8,2.4,4.9,3.9,5.1c4.2,0.7,8.5,0.3,13.3,0.3
				C890,521.7,883.5,511.7,877.1,501.7z M889.5,514.4c0.1,0.8,0.1,1.2,0.2,1.5c3.3,5.1,6.5,10.3,9.8,15.3c0.3,0.5,1,1.2,1.6,1.2
				c4.8,0.1,9.4,0,14.9,0c-3.9-6.1-7.3-11.4-10.7-16.8c-0.3-0.5-1-1.2-1.6-1.2C899.1,514.4,894.3,514.4,889.5,514.4z M774.7,506.7
				c1.3-1.9,2.2-3.5,3.1-5c4.7-7.6,4.7-7.6-0.1-15.3c-3.1-5-6.3-10-9.3-15c-0.6,5.5-0.1,11-0.7,16.2
				C766.7,495.7,770.7,500.7,774.7,506.7z M768.1,502.5c0,4.9,0,9.5,0,14.6C773.5,509.5,773.5,508.2,768.1,502.5z"/>
			<path class="st1" d="M114.8,323.7c4.4,1.1,8.7,2.6,11.6,7c4.1,6.2,5.1,13.1,2.4,20.3c-3,7.6-8.2,11-15,11.1
				c-5.7,0.1-11.4,0-17.1,0.1c-7.5,0.3-13,6.9-13.1,15.4c0,8.7,5.5,15.4,13.2,15.7c4,0.1,8-0.1,12,0.1c1.3,0,2.4,0.9,3.6,1.5
				c-1.1,0.5-2.3,1.6-3.5,1.6c-3.8,0.3-7.6,0.1-11.4,0.1c-9.4-0.1-16.5-8-16.7-18.8c-0.2-10.4,6.8-18.8,16.2-19.2
				c5.4-0.3,10.8,0,16.2-0.1c8.5,0,14.2-6.2,14.2-15.7c0-9.6-5.7-15.8-14.5-15.8c-36.2,0-72.5,0-108.7,0c-1.5,0-3-0.5-4.4-0.8
				c0-0.4,0-0.9,0-1.4c1.5-0.3,3-0.8,4.4-0.8c35.3,0,70.6,0,105.9,0c1.4,0,2.8-0.3,4.2-0.5C114.4,323.7,114.7,323.7,114.8,323.7z"/>
			<path class="st1" d="M233.2,447.9c-2.7,1.2-4.9,2.4-7.2,3.1c-0.8,0.3-1.8-0.4-2.7-0.8c0.7-0.8,1.1-1.8,1.9-2.3
				c1.4-0.9,3.1-1.4,4.4-2.2c3.3-2,4-4.3,3.2-8.9c-2.3,1.1-4.6,2.2-6.8,3c-0.8,0.3-1.8-0.5-2.7-0.8c0.7-0.8,1.1-1.9,1.9-2.4
				c1.6-0.9,3.4-1.5,4.9-2.4c2-1.5,3.4-3.5,2.8-6.9c-1.7,0.8-3.3,1.8-5,2.2c-0.9,0.3-2-0.4-3-0.7c0.7-0.8,1.3-2.2,2.2-2.4
				c2.8-1.2,5.6-2.3,6.3-6.5c0.1-0.4,0.8-1.2,1.1-1.1c0.6,0.1,1.4,0.8,1.4,1.4c0.6,4.2,3.3,5,6,6.4c0.8,0.4,1.4,1.6,2,2.6
				c-1,0.3-2,0.8-3.1,0.5c-1.5-0.3-2.8-1.1-4.4-1.8c-0.8,2.7-0.1,4.7,1.6,6s3.6,1.9,5.4,3.1c0.9,0.5,1.5,1.6,2.3,2.3
				c-1,0.3-2.2,1.1-3.1,0.8c-2-0.7-4-1.8-6-2.8c-1.3,3.9-0.3,6.6,3.1,8.9c1.4,0.9,3.1,1.2,4.4,2.2c0.7,0.4,1,1.2,1.6,1.9
				c-0.8,0.4-1.6,1.2-2.3,1.1c-2.4-0.7-4.6-1.8-7.3-3c0,4.5-0.1,8.8,0.1,13.1c0,0.5,1.1,1.6,1.8,1.6c7.7,0.1,15.6,0.1,23.3,0
				c0.7,0,1.9-1.5,1.9-2.4c0.2-4.2,0.1-8.3,0.1-12.9c-1.8,0.8-3.3,1.8-4.9,2.2c-1,0.3-2.2-0.3-3.3-0.5c0.8-0.8,1.5-2,2.4-2.4
				c5.2-2.2,6.6-4.6,5.5-10.4c-1.9,0.8-3.9,1.8-5.8,2.3c-0.6,0.1-1.4-0.7-2-1.1c0.5-0.7,0.8-1.6,1.5-2c0.9-0.5,1.9-0.7,3-1.2
				c3.5-1.9,4.4-4.1,3.5-9.1c-2.3,1.1-4.6,2.2-6.8,3c-0.8,0.3-1.7-0.5-2.6-0.8c0.7-0.8,1.1-1.9,1.9-2.3c1.3-0.8,2.7-1.1,4-1.8
				c3.4-2,4.3-4.3,3.8-9.2c-2.3,0.9-4.6,2.2-6.8,2.8c-0.8,0.3-1.8-0.5-2.7-0.8c0.7-0.8,1.3-1.8,2-2.2c1.6-0.9,3.4-1.5,4.9-2.6
				c1.9-1.4,3.2-3.5,2.6-6.8c-1.7,0.7-3.3,1.6-5,2c-0.9,0.3-1.9-0.5-2.8-0.8c0.7-0.8,1.3-1.9,2-2.2c2.8-1.2,5.6-2.3,6.3-6.5
				c0.1-0.5,0.9-1.1,1.4-1.2c0.3,0,1.1,0.7,1.1,1.2c0.6,4.2,3.4,5.3,6.1,6.5c0.8,0.4,1.4,1.6,2,2.4c-0.9,0.3-1.9,0.8-2.7,0.7
				c-1.6-0.4-3.2-1.4-5-2c-0.7,2.8,0,5.1,2,6.5c1.8,1.2,4,2,5.9,3.1c0.6,0.3,1,1.2,1.5,1.8c-0.7,0.4-1.5,1.4-2,1.1
				c-2.5-0.8-4.8-1.8-7.3-2.7c-1.1,3.8-0.3,6.6,2.8,8.7c1.6,0.9,3.4,1.5,5,2.3c0.6,0.4,0.9,1.4,1.4,2.2c-0.7,0.4-1.5,1.2-2,0.9
				c-2.4-0.8-4.8-1.9-7.2-3c-1.1,4.7-0.2,7,3.3,8.9c0.6,0.3,1.4,0.4,1.8,0.8c0.9,0.7,1.7,1.6,2.6,2.4c-1.1,0.3-2.4,0.9-3.4,0.8
				c-1.5-0.3-2.8-1.2-4.2-1.8c-1.5,5.3-0.1,8.1,4.6,10c1.1,0.5,2,1.8,3.1,2.6c-1.4,0.1-2.7,0.5-4.1,0.4c-1.1-0.1-2.3-0.9-4-1.8
				c0,4.9-0.1,9.3,0.1,13.9c0,0.5,2,1.4,3.1,1.4c10.4,0.1,20.7,0,31,0.1c6.5,0.1,11.3,3.8,14.1,10.6c2.8,6.8,2.3,13.5-1.4,19.9
				c-1,1.8-2.2,2.8-3.8,1.5c1.4-3.4,3.1-6.5,3.9-10c1.9-9.1-4-18-11.7-18.4c-1.7-0.1-3.4-0.1-5.1-0.1c-38,0-76,0-114.1,0
				c-8.2,0-14.7-5.8-16.4-14.6c-1.7-8.9,1.9-18,9-21.8c1.8-0.9,4-1.1,6-1.5c0.5,0,1.3,0.8,1.3,1.4s-0.6,1.5-1,1.6
				c-1.3,0.5-2.6,0.5-3.9,1.1c-6.3,2.3-9.9,9.5-9,17c0.9,7.3,6.3,13.1,12.6,13.1c16.4,0.1,32.8,0,49.2,0.1c2,0,3-0.8,2.8-3.2
				C233.1,455.8,233.2,452.1,233.2,447.9z"/>
			<path class="st1" d="M1408.1,448c0,4.5-0.1,8.7,0.1,12.9c0,0.8,1.7,1.9,2.6,2c4.7,0.3,9.3,0.1,13.9,0.1c13.3,0,26.5,0,39.8,0
				c3.8,0,7.1-1.5,9.8-4.6c3.8-4.5,4.7-9.9,3.2-15.6c-1.5-5.8-5.1-9.3-10.1-10.7c-0.3-0.1-0.8,0-1.1-0.1c-0.8-0.5-1.6-1.2-2.4-1.8
				c0.9-0.5,1.8-1.6,2.7-1.5c5.7,0.5,9.8,4.2,12.4,10c5.7,13.1-2.2,27.9-14.8,27.9c-34.4,0-68.6,0-103,0c-5,0-10,0-15,0
				c-5.4,0-9.4,2.8-11.8,8.3c-2.5,5.7-2,11.4,1,16.6c0.3,0.7,0.7,1.4,1,2c-2.3,1.2-2.7,0.9-4.1-1.6c-6.4-12.7,1.1-28.7,13.8-28.8
				c8.4-0.1,16.8-0.1,25.3,0.1c2.7,0,3.6-1.1,3.5-4.3c-0.2-3.7,0-7.3,0-11.2c-2.2,0.9-3.9,1.9-5.7,2.4c-0.8,0.3-1.7-0.5-2.6-0.9
				c0.6-0.7,1.1-1.5,1.8-2.2c0.2-0.3,0.7-0.3,1.1-0.4c4.8-1.9,5.9-3.9,5.1-10.3c-1.8,0.8-3.6,1.8-5.6,2.3c-0.8,0.1-1.7-0.7-2.5-1.1
				c0.6-0.7,1.1-1.6,1.9-2c0.9-0.5,1.9-0.8,3-1.4c3.3-1.9,4.1-4.2,3.2-9.1c-1.9,0.9-3.9,2.2-5.9,2.8c-1,0.4-2.4-0.3-3.5-0.4
				c0.9-0.9,1.6-2,2.6-2.7c1.3-0.9,2.8-1.2,4.1-2.2c2.8-2,3.5-4.3,2.7-8.5c-2.3,0.9-4.6,2-6.9,2.8c-0.8,0.3-1.7-0.7-2.6-1.1
				c0.7-0.7,1.3-1.6,1.9-2c1.6-0.9,3.4-1.5,4.9-2.6c2-1.5,3.4-3.5,2.7-7c-1.9,0.8-3.8,1.8-5.6,2.3c-0.7,0.1-1.6-0.5-2.4-0.9
				c0.6-0.7,1-1.9,1.7-2.2c3.1-1.2,5.9-2.6,6.7-6.9c0.1-0.4,0.9-1.1,1.3-0.9c0.5,0,1.1,0.7,1.1,1.2c0.7,4.2,3.5,5.3,6.3,6.5
				c0.8,0.4,1.3,1.5,1.9,2.3c-0.9,0.3-1.8,0.9-2.7,0.8c-1.6-0.4-3.1-1.2-4.7-1.9c-0.9,2.7-0.1,4.9,1.6,6.1c1.8,1.4,4,2,5.9,3.2
				c0.7,0.4,1,1.4,1.5,2c-0.7,0.3-1.6,1.1-2.2,0.9c-2.4-0.8-4.7-1.8-6.9-2.7c-1,3.4-0.5,6.1,1.9,8c1.5,1.1,3.3,1.6,4.9,2.7
				c0.9,0.5,1.5,1.6,2.3,2.4c-1,0.3-2.2,1.1-3.2,0.8c-2-0.5-3.9-1.8-5.8-2.6c-1.4,3.5-0.8,6.4,1.9,8.1c1.1,0.8,2.5,1.1,3.6,1.9
				c0.8,0.5,1.3,1.5,1.9,2.3c-0.9,0.3-1.9,1.1-2.7,0.8c-1.6-0.4-3.2-1.2-4.8-1.9c-1.4,4.1-0.7,6.9,2.3,8.8c0.7,0.4,1.5,0.7,2,1.1
				c1.1,0.8,3.1,2.3,3,2.6c-1,2.4-2.7,0.9-4.2,0.4c-1.1-0.3-2-0.9-3.8-1.8c0,4.9-0.1,9.5,0.1,13.9c0,0.5,1.3,1.4,1.9,1.4
				c7.6,0.1,15.4,0.1,23,0c0.7,0,1.9-1.2,2-2c0.2-4.2,0.1-8.3,0.1-12.9c-2.5,1.1-4.7,2.2-6.9,3c-0.8,0.3-1.8-0.5-2.7-0.8
				c0.7-0.8,1.1-1.8,1.9-2.3c1.4-0.8,3.1-1.2,4.4-2.2c3.1-2,3.8-4.3,2.7-8.5c-2.2,0.9-4.3,2-6.6,2.7c-0.7,0.3-1.7-0.7-2.6-0.9
				c0.7-0.8,1.1-1.8,1.9-2.3c1.7-1.1,3.8-1.8,5.4-3c1.8-1.4,2.6-3.4,1.8-6.2c-1.6,0.7-3.1,1.6-4.7,1.9c-0.9,0.1-1.9-0.5-2.8-0.8
				c0.7-0.8,1.1-1.9,1.9-2.3c2.8-1.2,5.6-2.3,6.1-6.5c0.1-0.5,0.9-1.2,1.1-1.1c0.6,0.1,1.3,0.8,1.4,1.4c0.7,4.1,3.4,5,6,6.4
				c0.9,0.4,1.5,1.5,2.3,2.3c-1,0.3-2.2,0.9-3.2,0.8c-1.6-0.3-3-1.4-4.7-2.2c-0.7,2.8,0.3,5,2,6.4c1.6,1.2,3.4,1.8,5.1,3
				c0.9,0.7,1.6,1.8,2.4,2.6c-1.1,0.3-2.3,0.9-3.3,0.5c-2-0.7-4-1.9-6-2.8c-1.1,4.1-0.3,6.8,2.8,8.8c1.6,0.9,3.4,1.5,5,2.4
				c0.7,0.4,1,1.4,1.5,2c-0.7,0.4-1.5,1.2-2,0.9C1413.5,450.3,1411.1,449.2,1408.1,448z"/>
			<path class="st1" d="M147.5,367.8c-2.4,1.2-4.6,2.4-6.8,3.1c-0.8,0.3-1.9-0.5-3-0.9c0.7-0.7,1.4-1.6,2.2-2.2
				c1.9-1.2,4.1-1.9,5.7-3.5c1.3-1.2,1.7-3.5,2.5-5.4c-0.2-0.1-0.6-0.4-0.8-0.5c-1.9,0.8-3.9,1.8-5.8,2.3c-0.6,0.1-1.4-0.7-2.2-0.9
				c0.5-0.7,0.9-1.8,1.5-2c3.2-1.2,6-2.6,6.9-7c0.3-1.6,1.8-1.5,2.2,0.1c1,4.2,3.6,5.8,6.8,6.8c0.7,0.3,1.1,1.2,1.6,1.9
				c-0.8,0.4-1.6,1.2-2.3,1.1c-1.9-0.5-3.8-1.5-5.8-2.4c-0.3,3.9,1.1,6.2,3.9,7.8c1.5,0.8,3.1,1.2,4.4,2c0.6,0.3,1,1.1,1.5,1.8
				c-0.7,0.4-1.5,1.4-2,1.2c-2.5-0.8-5-2-7.5-3c-1,3.1-0.2,6.5,2.3,8.4c1.7,1.2,3.9,1.9,5.7,3c0.7,0.4,1,1.4,1.5,2
				c-0.7,0.3-1.6,1.1-2.2,0.9c-2.5-0.9-4.9-2.2-7.7-3.4c0,4.2,0,8.5,0.1,13c0,0.5,1,1.4,1.6,1.4c8,0.1,15.9,0.1,23.9,0
				c0.7,0,1.8-1.6,1.9-2.6c0.2-3.9,0.1-7.8,0.1-12.2c-2,0.9-3.9,1.9-5.7,2.4c-0.8,0.3-1.7-0.7-2.6-0.9c0.7-0.7,1.3-1.5,1.9-1.9
				c1.4-0.9,3.1-1.4,4.3-2.4c2.6-2.2,2.2-5.3,1.8-8.5c-2.2,0.9-4,1.8-6,2.4c-0.6,0.1-1.4-0.7-2-1.1c0.5-0.7,0.8-1.5,1.4-1.9
				c0.6-0.4,1.3-0.4,1.8-0.7c4.6-2,5.6-4.1,4.9-10c-2.3,1.1-4.4,2.3-6.8,3.1c-0.8,0.3-1.9-0.5-2.8-0.8c0.7-0.7,1.3-1.6,2-2.2
				c1.5-0.9,3.2-1.4,4.7-2.4c2.8-1.9,3.6-4.9,2.7-8.9c-2,0.9-4.1,2.2-6.3,2.8c-0.9,0.3-2.2-0.4-3.2-0.7c0.8-0.8,1.5-1.6,2.4-2.3
				c2-1.5,4.4-2.6,6.3-4.3c0.9-0.9,1-3,1.7-5.3c-2.7,1.1-4.6,2-6.5,2.6c-0.7,0.1-1.5-0.4-2.2-0.8c0.5-0.7,0.8-1.9,1.4-2
				c3.3-1.2,6.4-2.4,7.1-7.2c0.1-0.4,0.9-0.9,1.4-0.8c0.5,0.1,1.1,0.7,1.1,1.2c0.6,4.3,3.4,5.3,6.1,6.5c0.8,0.4,1.4,1.5,2,2.2
				c-0.9,0.3-1.8,0.9-2.7,0.8c-1.6-0.4-3.2-1.2-5-1.9c-0.8,2.8,0,5.1,2,6.5c1.6,1.1,3.4,1.8,5.1,2.7c0.8,0.5,1.4,1.5,2,2.2
				c-1,0.3-2,1.1-2.8,0.8c-2.2-0.7-4.2-1.8-6.4-2.7c-1,5.1,0.1,7.8,4.4,10c1.1,0.5,2.4,0.8,3.5,1.4c0.6,0.3,0.9,1.2,1.4,1.8
				c-0.7,0.4-1.5,1.2-2,1.1c-2.4-0.8-4.8-1.9-7.2-2.8c-1.3,4.3-0.5,6.9,2.8,8.8c0.7,0.4,1.5,0.5,2,0.9c0.9,0.8,1.7,1.8,2.6,2.7
				c-1.3,0.1-2.5,0.4-3.6,0.3c-1.3-0.3-2.5-1.1-3.6-1.6c-1.6,3.9-0.9,7,1.9,8.9c1.1,0.8,2.5,1.1,3.6,1.8c0.7,0.4,1.1,1.4,1.8,2
				c-0.8,0.3-1.7,1.1-2.5,0.8c-1.7-0.4-3.4-1.2-5.6-2.2c0,4.3-0.1,8.5,0.1,12.6c0,0.7,1.4,1.6,2.3,1.8c2.4,0.4,4.8,0.1,7.1,0.5
				c7.3,1.4,12.5,8.8,13,17.6c0.5,8.7-4.4,16.9-11.4,19.2c-0.8,0.3-1.7,0.7-2.5,0.4c-1-0.3-2-0.9-3.1-1.5c0.9-0.7,1.7-1.6,2.6-1.9
				c5.4-1.1,9.1-4.3,10.9-10.4c3.1-10.1-3.4-20.6-12.9-20.6c-16.6-0.1-33.2,0-49.7,0c-1.3,0-2.5,0.1-3.6-0.1
				c-0.7-0.1-1.4-0.9-1.9-1.5c0.7-0.5,1.3-1.6,1.9-1.8c3.3-0.1,6.6-0.1,9.9-0.1c4.2,0,4.2,0,4.2-5.1c0-2.8,0-5.7-0.1-8.4
				c0-0.1-0.1-0.4-0.3-0.8c-2,0.9-4.1,2.2-6.3,2.8c-1,0.3-2.2-0.3-3.3-0.5c0.8-0.8,1.6-1.9,2.5-2.4c1.5-0.9,3.2-1.5,4.7-2.6
				C147.6,374.5,148.1,371.4,147.5,367.8z"/>
			<path class="st1" d="M1467.8,379.1c-2.5,0.8-4.3,1.6-6.3,2.2c-0.6,0.1-1.3-0.7-1.8-0.9c0.5-0.7,0.8-1.5,1.3-1.9
				c0.9-0.5,1.9-0.8,3-1.2c3.8-1.9,4.8-4.6,3.4-9.6c-1.8,0.7-3.5,1.6-5.4,2c-0.7,0.1-1.5-0.7-2.3-1.1c0.6-0.7,1-1.5,1.7-1.9
				c0.6-0.4,1.5-0.5,2.2-0.9c4-1.8,4.9-3.9,4.1-9.5c-2.2,0.9-4.3,2-6.6,2.7c-0.8,0.3-1.9-0.5-2.8-0.8c0.7-0.7,1.4-1.6,2.2-2
				c1.5-0.9,3.2-1.4,4.7-2.4c2.8-2,3.4-4.5,2.5-8.7c-2.2,0.9-4.2,2-6.4,2.7c-0.8,0.3-1.9-0.5-2.8-0.8c0.7-0.7,1.4-1.6,2.2-2.2
				c1.6-0.9,3.4-1.5,4.9-2.6c2-1.4,3-3.7,2.4-6.8c-1.9,0.7-3.8,1.6-5.7,2c-0.6,0.1-1.4-0.5-2.2-0.9c0.5-0.7,0.9-1.8,1.5-2
				c3.1-1.2,6.3-2.4,6.8-7c0.1-0.4,0.9-0.9,1.3-0.9c0.5,0,1,0.7,1.1,1.2c0.6,4.2,3.4,5.3,6.3,6.5c0.8,0.4,1.5,1.4,2.2,2
				c-0.9,0.3-1.9,1.1-2.8,0.8c-1.7-0.4-3.3-1.4-5.2-2.2c-0.6,3.5,0.8,5.7,3,7.2c1.6,1.1,3.5,1.6,5.2,2.6c0.7,0.4,1,1.4,1.5,2
				c-0.7,0.4-1.6,1.1-2.2,0.9c-2.4-0.8-4.8-2-7.2-3c-1.3,3.4-0.5,6.8,2.4,8.7c1.6,1.1,3.5,1.6,5.2,2.7c0.7,0.4,1.1,1.4,1.7,2.2
				c-0.8,0.3-1.7,1.1-2.4,0.8c-2.4-0.8-4.8-2-7.2-3c-1.1,4.9-0.1,7.3,3.8,9.3c0.9,0.5,2,0.7,3,1.2c0.6,0.4,0.8,1.2,1.3,1.9
				c-0.7,0.4-1.4,1.1-1.8,0.9c-2-0.5-4-1.5-5.9-2.3c-1.4,4.5-0.3,7.6,3.1,9.6c0.5,0.3,1.1,0.4,1.6,0.8c1,0.8,2,1.8,3.1,2.6
				c-1.5,0.1-3,0.4-4.4,0.1c-1.1-0.1-2.3-1.1-3.9-1.9c0,4.6-0.1,8.8,0.1,12.9c0,0.7,1.4,1.8,2.2,1.9c7.6,0.1,15.4,0.1,23,0.1
				c1.5,0,2.4-0.5,2.4-2.6c0-3.8,0-7.6,0-11.9c-2.3,1.1-4.2,2.3-6.3,3c-1.1,0.4-2.4-0.3-3.6-0.4c0.9-0.8,1.7-2.2,2.6-2.6
				c5.8-2.2,7.6-4.9,6.9-11.1c-2.3,1.1-4.4,2.3-6.8,3c-0.8,0.3-1.9-0.5-2.8-0.9c0.7-0.7,1.4-1.6,2.3-2.2c2-1.4,4.3-2.3,6.1-4.1
				c1-1.1,1.3-3.2,2.2-5.8c-2.8,1.2-4.7,2-6.5,2.7c-0.7,0.1-1.5-0.5-2.2-0.8c0.5-0.7,0.8-1.9,1.4-2c3.2-1.2,6.3-2.4,7.2-7.2
				c0.3-1.6,1.9-1.2,2.3,0.3c0.9,4.3,3.5,5.8,6.7,6.9c0.7,0.3,1,1.5,1.6,2.3c-0.8,0.3-1.6,0.9-2.2,0.8c-1.7-0.4-3.4-1.4-5.2-2
				c-0.9,3,0.1,5,1.9,6.5c1.7,1.2,3.6,1.9,5.3,3c0.7,0.4,1.1,1.4,1.8,2c-0.8,0.3-1.7,1.1-2.5,0.8c-2.3-0.8-4.4-1.9-6.6-2.8
				c-1.3,3.9-0.5,6.9,2.6,8.9c1.7,1.1,3.5,1.6,5.2,2.6c0.6,0.3,0.8,1.2,1.3,1.9c-0.7,0.4-1.3,1.1-1.9,0.9c-1.3-0.3-2.6-0.8-3.8-1.4
				c-1.1-0.5-2.2-1.2-3.9-2.2c0,4.6-0.1,8.8,0.1,13c0,0.5,1.3,1.4,1.9,1.5c1.3,0.3,2.6,0,4,0.3c0.6,0.1,1.1,0.9,1.7,1.4
				c-0.6,0.5-1.1,1.5-1.7,1.8c-0.9,0.3-1.9,0.1-2.8,0.1c-15,0-29.9,0-45,0c-7.9,0-13.5,6.9-13.4,16c0.1,7.3,4.6,13.7,10.7,14.9
				c0.7,0.1,1.4,0,1.9,0.3c0.6,0.4,1,1.1,1.5,1.8c-0.6,0.5-1.3,1.5-1.6,1.4c-2.5-0.7-5.4-0.9-7.5-2.4c-6.3-4.3-9.1-12.7-7.3-21
				c1.7-8.1,7.6-13.8,14.9-14.3c2.3-0.1,4.6,0.1,6.8-0.1c0.8-0.1,2.2-1.4,2.3-2.2C1467.9,387.3,1467.8,383.3,1467.8,379.1z"/>
			<path class="st1" d="M1583.7,324.2c17.1,0,34.1,0,51.2,0c0.8,0,1.7-0.1,2.5,0.1c0.6,0.1,1.1,0.8,1.6,1.4
				c-0.5,0.5-0.9,1.2-1.6,1.5c-0.9,0.3-1.9,0.1-2.8,0.1c-33.7,0-67.3,0-101,0c-5.1,0-9.6,1.9-12.4,7.2c-2.7,5-3,10.4-0.7,15.7
				c2.4,5.4,6.3,8.4,11.4,8.7c5.4,0.1,10.6,0,15.9,0.1c8.9,0.3,15.1,6.8,16.4,16.6c1.3,10.4-5.5,20.7-14.3,21.2
				c-6.1,0.4-12.3,0.1-18.4,0c-0.8,0-1.5-0.9-2.3-1.4c0.8-0.7,1.5-1.8,2.3-1.8c5.8-0.1,11.6,0,17.3-0.3c9.4-0.4,15.4-11.1,12-21.2
				c-2-6-5.9-9.5-11.3-9.7c-5.4-0.3-10.8-0.1-16.2-0.1c-8.7-0.1-15.3-6.5-16.6-16c-1.7-11.5,5.7-21.9,15.6-21.9
				c15.1,0,30.4,0,45.5,0C1579.7,324.2,1581.6,324.2,1583.7,324.2z"/>
			<path class="st1" d="M664.7,519.7c0,3.7,0.1,6.8-0.1,9.7c0,0.9-0.8,1.9-1.3,2.8c-0.5-1.1-1.4-2-1.4-3.1c-0.1-2.8,0.2-5.7,0.3-8.8
				c-3.1,1.4-5.6,2.7-8.3,3.7c-0.8,0.3-1.9-0.5-2.8-0.8c0.7-0.7,1.4-1.6,2.2-2c1.1-0.7,2.5-0.9,3.8-1.6c4.7-2.6,5.8-5.4,5-11.8
				c-2.5,1.1-5,2.4-7.6,3.2c-0.9,0.3-1.9-0.4-3-0.7c0.8-0.8,1.5-1.8,2.3-2.3c1.7-0.9,3.5-1.6,5.2-2.6c3.1-1.9,4.3-4.9,3.6-9.2
				c-2.2,0.9-4.2,2.2-6.3,2.8c-0.8,0.3-1.9-0.5-2.8-0.9c0.7-0.7,1.4-1.8,2.2-2c3.4-1.4,6.7-2.6,7.4-7.7c0.1-0.5,0.9-1.4,1.4-1.4
				c0.5,0,1.3,0.8,1.3,1.5c0.5,4.7,3.5,6.1,6.6,7.3c0.3,0.1,0.8,0.1,1.1,0.4c0.7,0.7,1.3,1.4,1.8,2.2c-0.8,0.3-1.7,1.1-2.4,0.9
				c-2.3-0.7-4.4-1.8-6.6-2.8c-0.8,3.7-0.2,6.4,2.4,8.3c2,1.5,4.6,2.3,6.7,3.5c0.7,0.4,1.3,1.4,1.8,2c-0.9,0.3-1.8,1.2-2.5,0.9
				c-3.1-1.2-6.1-2.7-9.1-4.2c-1.1,6.2,0.2,10,5.2,12.7c0.9,0.4,1.8,0.7,2.6,1.2c1.3,0.7,3.5-0.1,3,2.7c-0.1,0.4-2.7,0.7-4,0.1
				C670.2,522.8,667.9,521.3,664.7,519.7z"/>
			<path class="st1" d="M979.7,496.3c-0.3,3.8,0.6,7,3.4,8.9c1.8,1.2,3.9,1.9,5.7,3c0.8,0.4,1.5,1.4,2.2,2.2c-0.9,0.3-2,1.1-2.8,0.8
				c-2.5-0.8-5-2.2-7.4-3.2c-1.5,3.8-0.8,7.7,2.4,10c1.9,1.5,4.3,2.2,6.5,3.4c0.7,0.4,1.3,1.4,1.8,2c-0.8,0.3-1.7,1.1-2.4,0.9
				c-2.8-1.1-5.7-2.3-8.3-3.5c0,2.8,0.1,5.7,0,8.7c0,0.9-0.8,1.8-1.1,2.7c-0.6-0.8-1.5-1.6-1.5-2.6c-0.2-3.2-0.1-6.5-0.1-10
				c-2.5,1.5-4.8,2.8-7.1,4.1c-0.7,0.4-1.5,0.8-2.2,0.7c-1-0.1-1.9-0.5-3-0.8c0.7-0.7,1.4-1.6,2.2-2.2c1.8-0.9,3.8-1.5,5.5-2.7
				c3.6-2.6,4.7-6.4,3.4-11.4c-2.7,1.4-5.5,2.8-8.3,3.9c-0.9,0.3-2-0.4-3-0.5c0.7-0.8,1.4-1.8,2.3-2.3c1.6-0.9,3.4-1.5,5-2.4
				c3.3-1.9,4.4-5.1,4.3-9.6c-2.3,1.1-4.4,2.3-6.6,3c-0.9,0.3-1.9-0.4-3-0.7c0.8-0.8,1.4-2,2.3-2.3c3.5-1.4,6.6-2.8,7.4-7.7
				c0.1-0.5,0.9-1.1,1.5-1.2c0.3,0,1,0.8,1,1.2c0.6,5,3.8,6.4,7.1,7.6c0.2,0.1,0.7,0,0.8,0.3c0.6,0.7,1.1,1.5,1.7,2.2
				c-0.8,0.3-1.7,0.9-2.5,0.8C984.2,498.4,982.1,497.4,979.7,496.3z"/>
		</g>
	</g>
</g>
</svg>
